<svg xmlns="http://www.w3.org/2000/svg" width="342.083" height="262.292" viewBox="0 0 342.083 262.292"><defs><style>.a{fill:#fff;}.b{fill:#211715;}.c{fill:#ffda71;}.d{fill:#645d5c;}.e{fill:none;}.f{fill:#4d4544;}.g{fill:#7abee6;}.h{fill:#74c66d;}.i{fill:#a0a0a0;}</style></defs><path class="a" d="M192.127,170.886a9.385,9.385,0,0,0-1.736.285c-18.333,4.79-74.322,19.424-93.262,24.326a1.252,1.252,0,0,0-.015,2.421c8.835,2.412,24.627,6.7,37.655,10.232,21.755-5.869,68.407-18.4,100.8-27.205l-16.27-3.991c-6.743-1.654-17.519-4.2-24.318-5.83A9.422,9.422,0,0,0,192.127,170.886Z"/><path class="a" d="M240.337,26a34.831,34.831,0,0,0-11.394,10.461,32.375,32.375,0,0,0-4.987,13.929,46.123,46.123,0,0,0-.877,7.907c-.626,5.985-1.472,14.291-7.181,16.853a5.609,5.609,0,0,0-2.738,2.37c-1.536,2.888.936,4.419,2.4,6.258a9.226,9.226,0,0,1,1.8,4.048,56.959,56.959,0,0,0,.574,8.735,24.216,24.216,0,0,0,1.522,5.942,11.487,11.487,0,0,0,5.872,6.287c4.418,2,10.589,3.056,14.694,2.267a2,2,0,0,1,2.268,1.351,53.065,53.065,0,0,1,2.766,6.683l3.444,11.087,34.245-5.292c-.785-3.359-1.443-6.185-1.443-6.185a31.832,31.832,0,0,1-.384-6.752c.882-5.151,7.625-9.8,11.383-13.326,5.79-5.439,14.431-16.244,15.171-32.113A46.615,46.615,0,0,0,301.5,42.192c-9.567-16.611-21.487-20.24-28.89-21.726a47.009,47.009,0,0,0-21.422.969A42.478,42.478,0,0,0,240.337,26Z"/><path class="b" d="M219.832,175.026c-6.827-1.674-13.668-3.291-20.506-4.921-1.564-.373-3.137-.838-4.727-1.082a13.088,13.088,0,0,0-5.386.388l-5.2,1.359q-15.243,3.984-30.486,7.964-17.325,4.525-34.653,9.042-7.194,1.875-14.389,3.746l-5.8,1.5a12.241,12.241,0,0,0-2.831.841,3.273,3.273,0,0,0-1.358,4.187c.726,1.577,2.308,1.852,3.823,2.265l4.067,1.108q4.967,1.353,9.932,2.7,10.784,2.931,21.569,5.854L139,211.37c2.488.673,3.549-3.184,1.064-3.858q-19.7-5.335-39.393-10.7l-1.841-.5a6.141,6.141,0,0,0-.8-.218c-.05-.007-.354-.133-.388-.106.126-.1.565.667.524.887-.145.783-.8.541-.095.442a4.808,4.808,0,0,0,.512-.132l1.255-.326q2.739-.71,5.478-1.422,6.876-1.786,13.751-3.579,16.57-4.319,33.14-8.647,15.052-3.93,30.1-7.863l5.567-1.455c2.309-.6,4.465-1.328,6.876-.768,6.573,1.526,13.131,3.122,19.689,4.706q2.163.522,4.322,1.051c2.5.612,3.567-3.244,1.064-3.857Z"/><path class="a" d="M189.3,184.992a49.015,49.015,0,0,0,4.975-.528c1.919-.271,3.852-.434,5.784-.6a19.355,19.355,0,0,1,4.185,1.514c.714.431,1.485.935,1.678,1.7s-.671,1.713-1.423,1.341l-1.2,2.237a12.025,12.025,0,0,0,7.017,3.5c1.684-6.883,3.392-14.386,5.211-21.368a33.324,33.324,0,0,0-10.562-1.923,21.13,21.13,0,0,0-12.642,3.845c-.993.737-1.982,2.086-1.253,3.085l.178.457c-.464.182-.888.359-1.239.5a7.019,7.019,0,0,0-3.328,2.764,2.07,2.07,0,0,0,.059,2.191A2.87,2.87,0,0,0,189.3,184.992Z"/><path class="b" d="M218.55,171.784c-5.755-2.285-11.927-3.546-18.1-2.536-3.689.6-14.22,4.012-11.106,9.554,1.262,2.244,4.718.23,3.454-2.019-.043.4-.023.473.062.228a1.341,1.341,0,0,1,.347-.432,6.28,6.28,0,0,1,1.164-.856,16.819,16.819,0,0,1,2.885-1.48,20.291,20.291,0,0,1,6.238-1.34,33.064,33.064,0,0,1,14,2.738,2.014,2.014,0,0,0,2.46-1.4,2.048,2.048,0,0,0-1.4-2.461Z"/><path class="b" d="M197.89,174.515a45.937,45.937,0,0,0-7.638,1.991c-2.506,1.011-5.93,2.937-5.858,6.1a4.527,4.527,0,0,0,2.3,3.74,6.786,6.786,0,0,0,4.176.543c1.5-.138,2.993-.381,4.491-.564.782-.095,1.565-.175,2.349-.249q.543-.051,1.087-.1l.724-.063.362-.031q.374-.012-.021-.045c.044.061-.343-.108-.105-.01.078.032.172.04.253.064.23.068.46.134.688.207.534.173,1.06.366,1.585.564a5.472,5.472,0,0,1,.957.445c.065.037.678.514.728.506.109-.018-.25.205,0-.145.288-.394-.171-1.371,1.063-.973-2.456-.792-3.507,3.069-1.064,3.857a3.126,3.126,0,0,0,3.882-2.267c.421-1.725-.675-3.115-2-4.051a12.548,12.548,0,0,0-2.934-1.391,10.89,10.89,0,0,0-2.536-.74,22.2,22.2,0,0,0-4.66.378c-1.571.183-3.133.443-4.707.594-.475.046-2.375.474-2.586-.235-.177-.594,1.469-1.606,1.916-1.842,2.642-1.395,5.73-1.8,8.613-2.424,2.515-.542,1.45-4.4-1.064-3.857Z"/><path class="b" d="M212.268,192.247c-.384.013-.769.011-1.153-.013-.215-.013-.43-.038-.645-.058-.282-.026.381.066.1.013-.094-.018-.189-.031-.284-.048a12.871,12.871,0,0,1-2.284-.648c-.262-.1.015-.038.078.036-.044-.051-.2-.088-.263-.118-.175-.08-.347-.165-.518-.254-.34-.178-.673-.372-1-.582-.161-.1-.319-.213-.475-.326-.05-.036-.39-.275-.143-.1.224.156-.036-.033-.078-.068a12,12,0,0,1-.9-.832,2,2,0,0,0-2.829,2.829,14.085,14.085,0,0,0,10.385,4.173,2,2,0,0,0,0-4Z"/><path class="a" d="M176.768,198.9a33.119,33.119,0,0,0-3.524-8.184,3.647,3.647,0,0,0-1.737-1.588,4.033,4.033,0,0,0-2.759-.205,3.8,3.8,0,0,0-2.691,2.279,8.524,8.524,0,0,0-5.858-5.209,22.611,22.611,0,0,0-7.211-.682c-2.182.053-4.69,1.127-5.25,2.415a10.054,10.054,0,0,0-1.664.215,9.742,9.742,0,0,0-1.781.551q-2.129.918-4.216,1.925a2.8,2.8,0,0,0-1.716,2.445l.066.829a10.84,10.84,0,0,0-3.1,1.61,4.763,4.763,0,0,0-1.79,2.289,2.4,2.4,0,0,0,.767,2.652l1.676,1.148a12.608,12.608,0,0,0-.962.982c-1.249,1.413-1.524,2.982-1.024,3.868a3.123,3.123,0,0,0,2.372,1.389c.886.058,5.163-1.011,6.705-1.2a23.8,23.8,0,0,0,17.849,9.169l.595.293C163.646,209.947,170.405,202.327,176.768,198.9Z"/><path class="b" d="M168.21,191.448a3.656,3.656,0,0,0,.316-.3q-.3.228-.115.106c.06-.04.122-.077.185-.112a2.012,2.012,0,0,1,.4-.2c-.263.074-.166.071.042-.006.152-.056.3-.112.462-.153a2.223,2.223,0,0,1,.229-.05l-.214.034c.1-.064.37,0,.493,0,.5.013-.356-.105.14.025.168.044.333.091.5.138.4.11-.213-.167.121.047.1.066.213.133.319.194.12.083.083.055-.11-.086.057.048.112.1.164.151s.229.18.255.273c-.155-.21-.169-.225-.04-.045l.083.127c.166.262.316.537.466.81.293.534.568,1.08.829,1.631q.223.471.433.949.106.242.21.485c-.138-.325.027.068.072.178q.761,1.869,1.357,3.8a2,2,0,1,0,3.857-1.064,50.666,50.666,0,0,0-1.763-4.769,27.453,27.453,0,0,0-2.007-4.038,6.022,6.022,0,0,0-4.718-2.791,6.29,6.29,0,0,0-4.795,1.836,2,2,0,0,0,2.829,2.828Z"/><path class="b" d="M167.463,189.375c-1.643-3.3-5.2-5.21-8.73-5.764-3.576-.562-8.2-.866-11.249,1.469a2.066,2.066,0,0,0-.717,2.736,2.013,2.013,0,0,0,2.736.718,6.114,6.114,0,0,1,3.485-1.224,25.259,25.259,0,0,1,4.682.158c2.585.378,5.128,1.49,6.339,3.926a2,2,0,0,0,3.454-2.019Z"/><path class="b" d="M155.159,187.084c-3.285-1.164-6.9-1.88-10.329-.9a34.379,34.379,0,0,0-5.065,2.168c-1.835.869-3.432,2.311-3.4,4.5.033,2.572,4.033,2.579,4,0,0-.107.068-.289.006-.149-.072.167.085-.127.1-.139s.317-.26.351-.281a19.255,19.255,0,0,1,2.087-1,16.44,16.44,0,0,1,3.654-1.409,7.572,7.572,0,0,1,1.89-.164c.381.013.761.052,1.141.09.206.021.413.042.619.067.069.008.35.051.129.017a20.9,20.9,0,0,1,3.759,1.053,2.019,2.019,0,0,0,2.46-1.4,2.04,2.04,0,0,0-1.4-2.46Z"/><path class="b" d="M148.2,191.021c-4.021-.436-8.348-.3-12.059,1.456a8.569,8.569,0,0,0-4.208,3.785,4.534,4.534,0,0,0,1.367,5.706,2.011,2.011,0,0,0,2.736-.718,2.051,2.051,0,0,0-.717-2.736c.073.056.138.073.188.16-.171-.3-.01.053-.064-.147-.08-.3-.008.26-.014-.055,0-.035,0-.423,0-.229,0,.238.1-.275,0-.066a3.278,3.278,0,0,1,.215-.395,2.083,2.083,0,0,1,.405-.473,8.171,8.171,0,0,1,3.267-1.81,22.329,22.329,0,0,1,8.882-.478,2.012,2.012,0,0,0,2-2,2.047,2.047,0,0,0-2-2Z"/><path class="b" d="M137.757,197.728a14.621,14.621,0,0,0-4.15,3.229c-1.268,1.451-2.243,3.464-1.695,5.428a4.847,4.847,0,0,0,4.537,3.246,16.589,16.589,0,0,0,3.36-.541c.684-.14,1.367-.286,2.051-.423.311-.063.622-.125.935-.181.14-.026.281-.051.422-.073.051-.008.1-.015.152-.024.305-.053-.565.072-.261.034a2.19,2.19,0,0,0,1.415-.585,2.029,2.029,0,0,0,.585-1.415c-.043-.973-.887-2.137-2-2-2.129.263-4.2.844-6.316,1.182-.092.015-.185.025-.277.042.723-.133.374-.047.194-.031-.107.01-.5-.019-.2.034.354.061-.151-.04-.233-.064a1.441,1.441,0,0,0-.25-.084c.02,0,.349.179.172.068a1.8,1.8,0,0,0-.405-.235c.169,0,.273.255.093.071-.073-.076-.149-.156-.225-.228-.151-.144.129.139.123.156s-.086-.168-.105-.184c.033.028.152.5.1.218a.663.663,0,0,0-.036-.141c-.1-.209.008.472.026.232,0-.05-.008-.107-.009-.158,0-.073,0-.145,0-.218,0-.279.008.131-.033.188a2.252,2.252,0,0,0,.115-.479c.019-.062.045-.123.063-.185.07-.254-.175.343-.047.1.079-.148.149-.3.235-.444.051-.087.108-.169.161-.255.113-.183.054-.107-.035.025a9.006,9.006,0,0,1,1.737-1.724c.038-.032.23-.181.018-.017-.242.187.087-.061.138-.1q.234-.168.476-.325c.383-.249.779-.476,1.182-.69a2.017,2.017,0,0,0,.717-2.737,2.043,2.043,0,0,0-2.736-.717Z"/><path class="b" d="M141.694,207.89a25.846,25.846,0,0,0,19.229,9.711c2.575.1,2.57-3.9,0-4a22.037,22.037,0,0,1-16.4-8.54,2.01,2.01,0,0,0-2.828,0,2.051,2.051,0,0,0,0,2.829Z"/><path class="b" d="M178.393,198.449q9.338-2.517,18.672-5.04c2.482-.674,1.429-4.534-1.063-3.857q-9.332,2.535-18.672,5.04c-2.483.67-1.429,4.529,1.063,3.857Z"/><path class="c" d="M294.071,123.133c9.354,4.37,17.054,13.211,20.821,23.888a83.655,83.655,0,0,1,3.59,16.907c.655,4.945,1.131,19.574,1.137,34.492-12.773,3.768-27.951,8.244-39.27,11.532a12.373,12.373,0,0,0-8.885,10.942q-.151,2-.3,3.958c-13.984,4.267-30.881,9.38-39.443,11.941a23.376,23.376,0,0,1-9.3,5.624c-3.926,1.251-9.552,1.765-18.248-.592a69.01,69.01,0,0,1-12.377-5.553c-12.3-6.788-26.315-15.424-30.319-20.285,2.3-6.566,10.324-15.239,17.221-18.013a.986.986,0,0,1,.721,0c4.848,1.818,37.033,10.692,27.586,7.887a73.618,73.618,0,0,0,2.373-7.959c3.685-14.5,7.395-33.095,12.083-43.417,4.014-8.837,13.137-16.448,20.864-21.166,1.336-.816,3.481-1.949,4.939-2.949Z"/><path class="b" d="M290.6,123.753c-2.657-2.188-5.351-3.548-8.851-3.452q-3.8.1-7.59.331c-3.452.2-6.9.49-10.326.96a39.149,39.149,0,0,0-9.879,2.84,82.9,82.9,0,0,0-10.168,5.156c-2.213,1.312-.2,4.771,2.019,3.454a73.687,73.687,0,0,1,10.735-5.372,42.133,42.133,0,0,1,11.447-2.566c3.7-.36,7.416-.568,11.131-.712A35.861,35.861,0,0,1,283,124.3a8.591,8.591,0,0,1,4.775,2.278c1.972,1.624,4.818-1.19,2.829-2.829Z"/><path class="b" d="M246.26,128.64c-2.345,1.573-4.876,2.846-7.232,4.408a75.754,75.754,0,0,0-6.936,5.2,47.516,47.516,0,0,0-11.508,13.521,74.271,74.271,0,0,0-5.372,14.556c-1.671,5.8-3.084,11.678-4.487,17.55-1.568,6.567-2.909,13.269-5.025,19.687-.807,2.45,3.054,3.5,3.858,1.063,1.81-5.492,3-11.206,4.343-16.827,1.382-5.8,2.753-11.613,4.319-17.371a103.4,103.4,0,0,1,4.732-14.392,40.024,40.024,0,0,1,10-13.232,65.216,65.216,0,0,1,7.319-5.777c2.595-1.769,5.4-3.182,8.007-4.93,2.126-1.427.126-4.894-2.019-3.453Z"/><path class="b" d="M292.849,124.757a39.449,39.449,0,0,1,19,19.961c3.272,7.346,4.521,15.742,5.037,23.731.917,14.181.9,28.48.611,42.68a192.054,192.054,0,0,1-1.2,21.138,2.01,2.01,0,0,0,2,2,2.052,2.052,0,0,0,2-2,178.9,178.9,0,0,0,1.146-18.858c.2-8.029.218-16.064.115-24.094-.085-6.668-.224-13.343-.62-20-.48-8.06-1.633-16.383-4.527-23.944-3.929-10.268-11.471-19.377-21.541-24.068a2.058,2.058,0,0,0-2.736.717,2.018,2.018,0,0,0,.717,2.737Z"/><path class="d" d="M276.285,20.122c-1.258-.343-2.443-.607-3.531-.825a47.993,47.993,0,0,0-21.872.989c-14.313,3.825-21.455,13.224-22.713,15.34a36.728,36.728,0,0,0-3.753,7.948,36.229,36.229,0,0,0,14.7,21.127s4.388,0,7.929,0a35.49,35.49,0,0,0,10.26,8.825,6.479,6.479,0,0,1,2.673-.952,5.731,5.731,0,0,1,4.723,1.329c1.789,1.669,2.327,4.771,1.906,7.22a14.431,14.431,0,0,1-8.094,11.111c1.768,7.542,2.681,10.751,2.179,17.1-.305,3.857-5.616,14.648-12.088,16.592,5.186,3.975,13.166,6.347,20.76,7.025,11.892,1.062,23.167-.8,28.6-4.3,4.424-2.85,7.487-5.062,9.416-10.034,1.022-2.636.469-6.9.086-9.365-1.4-9-3.916-13.824-.9-28.731a136.02,136.02,0,0,0,1.78-14.21,47.6,47.6,0,0,0-6.1-24.827c-7.932-13.773-17.449-18.8-24.793-21.022Q276.862,20.278,276.285,20.122Z"/><path class="b" d="M257.441,75.9c1.8-1.525,4.941-2.18,6.43.125,1.364,2.11.917,4.871.189,7.114-1.528,4.7-5.513,7.4-10.109,8.687-2.475.692-1.424,4.552,1.064,3.857,4.957-1.385,9.56-4.229,11.885-8.98a16.142,16.142,0,0,0,1.826-7.806c-.173-2.93-1.377-6.092-4.138-7.5-3.422-1.742-7.182-.7-9.975,1.671a2.016,2.016,0,0,0,0,2.829,2.043,2.043,0,0,0,2.828,0Z"/><path class="b" d="M225.793,66.484c-.809,1.677-1.152,5.785,1.96,6.649,4.194.661,5.236-4.2,4.212-6.737C231.126,64.32,227.862,62.979,225.793,66.484Z"/><path class="b" d="M246.984,118.557c-.557-1.684-1.212-3.331-1.933-4.951q-.339-.759-.7-1.51c-.072-.151-.139-.31-.221-.457-.216-.388.268.657-.039-.068a4.022,4.022,0,0,0-3.906-2.533c-1.493.063-2.914.326-4.428.247a26.45,26.45,0,0,1-9.419-2.224,10.236,10.236,0,0,1-5.38-6.2,37.325,37.325,0,0,1-1.589-11.032,12.368,12.368,0,0,0-.849-4.949,13.751,13.751,0,0,0-2.7-3.812c-.692-.753-1.458-1.492-.934-2.545.627-1.26,2.118-1.584,3.205-2.31a13.271,13.271,0,0,0,4.8-6.468c2.566-6.58,1.723-13.833,3.392-20.6.616-2.5-3.241-3.565-3.857-1.063-1.536,6.228-.992,12.755-2.82,18.922-.66,2.227-1.722,4.656-3.786,5.918-1.315.8-2.664,1.332-3.678,2.563a5.767,5.767,0,0,0-1.344,4.869c.664,2.9,3.722,4.31,4.444,7.212a28.8,28.8,0,0,1,.243,4.776,54.858,54.858,0,0,0,.707,5.912,18.234,18.234,0,0,0,4.382,9.589c2.159,2.261,5.139,3.434,8.094,4.263a28.97,28.97,0,0,0,11.234.983c.673-.079.375-.3.671.358.165.367.35.724.521,1.088a45.269,45.269,0,0,1,2.03,5.083c.8,2.433,4.669,1.391,3.857-1.063Z"/><path class="e" d="M223.919,50.664a32.478,32.478,0,0,1,5.024-14.2c1.231-2.072,8.226-11.278,22.244-15.024a47.009,47.009,0,0,1,21.422-.969c7.4,1.486,19.323,5.115,28.89,21.726a46.615,46.615,0,0,1,5.972,24.316c-.74,15.869-9.381,26.674-15.171,32.113-3.758,3.528-10.5,8.175-11.383,13.326a31.832,31.832,0,0,0,.384,6.752"/><path class="b" d="M224.1,88.576a20.043,20.043,0,0,1-3.252.76l.532-.071a12.218,12.218,0,0,1-3.057.041l.532.071c-.249-.033-.5-.075-.74-.125a2,2,0,0,0-1.063,3.857,16.148,16.148,0,0,0,8.112-.676,2,2,0,1,0-1.064-3.857Z"/><path class="b" d="M222.955,45.83a38.753,38.753,0,0,0,15.153,20.6,2.021,2.021,0,0,0,2.737-.717,2.041,2.041,0,0,0-.718-2.737,34.364,34.364,0,0,1-13.315-18.208c-.749-2.455-4.611-1.408-3.857,1.064Z"/><path class="b" d="M237.821,55.047c4.619,7.174,9.471,14.481,16.767,19.2,2.168,1.4,4.176-2.059,2.019-3.454-6.689-4.324-11.1-11.195-15.332-17.762-1.389-2.158-4.853-.154-3.454,2.018Z"/><path class="e" d="M260.614,92.777a25.086,25.086,0,0,0,5.108,10.627c2.478,2.68,9.084,4.984,13.138,5.8"/><path class="b" d="M225.04,50.13a32.509,32.509,0,0,1,3.741-11.553,28.37,28.37,0,0,1,1.685-2.8c.1-.145.209-.288.315-.43.281-.379-.165.2.158-.2s.657-.8,1-1.184a39.271,39.271,0,0,1,17.243-11.085c14.1-4.56,30.509-2.743,41.724,7.407a47.811,47.811,0,0,1,13.88,22.632c2.346,8.6,1.666,17.571.021,26.251a77.761,77.761,0,0,0-1.644,12.728,48.78,48.78,0,0,0,.839,9.669c.534,2.986,1.227,5.942,1.65,8.948a22.2,22.2,0,0,1,.231,5.873,11.28,11.28,0,0,1-2.273,5.043,23.521,23.521,0,0,1-8.583,6.558,35.9,35.9,0,0,1-11.182,2.829c-9.492,1.091-19.965.572-28.783-3.422a28.7,28.7,0,0,1-5.447-3.192,2.012,2.012,0,0,0-2.736.718,2.049,2.049,0,0,0,.717,2.736c8.029,6.047,19,7.643,28.789,7.6a60.96,60.96,0,0,0,14.927-1.763,30.915,30.915,0,0,0,10.448-4.976c3.478-2.491,6.559-5.752,7.755-9.975,1.091-3.852.207-8.229-.5-12.078-.556-3.022-1.29-6.034-1.62-9.083a46.789,46.789,0,0,1,.249-11.384c.565-4.126,1.473-8.177,1.96-12.319a60.229,60.229,0,0,0,.338-15.391A51.989,51.989,0,0,0,297.5,31.306,41.977,41.977,0,0,0,279.71,19.09a48.933,48.933,0,0,0-25.143-1.69c-14.229,2.656-27.7,11.5-32.127,25.8a42.087,42.087,0,0,0-1.4,6.935,2.01,2.01,0,0,0,2,2,2.051,2.051,0,0,0,2-2Z"/><path class="b" d="M256.936,94.251a56.611,56.611,0,0,1,1.864,10.438c.038.863.04,1.728.011,2.591-.013.4-.033.8-.057,1.206-.007.117-.134,1.354-.048.8a14.666,14.666,0,0,1-.808,2.844,28.244,28.244,0,0,1-3.94,7.059c-1.506,1.982-3.45,4.028-5.884,4.805s-1.4,4.642,1.063,3.857c6.126-1.955,10.179-8.51,12.428-14.168,2.609-6.563.783-13.906-.772-20.5-.591-2.5-4.449-1.444-3.857,1.063Z"/><path class="b" d="M69.721,250.743c10.188-2.8,20.359-5.661,30.529-8.522q19.261-5.416,38.5-10.926c4.807-1.383,9.616-2.762,14.4-4.219,2.455-.748,1.408-4.61-1.064-3.857-10.119,3.081-20.314,5.925-30.49,8.815q-19.24,5.464-38.505,10.844-7.212,2.015-14.431,4.007c-2.479.681-1.426,4.541,1.064,3.858Z"/><path class="a" d="M268.633,260.37c.907-13.048,1.775-25.571,2.83-39.459a12.383,12.383,0,0,1,8.887-10.96c15.44-4.485,38.058-11.178,51.961-15.274a6.064,6.064,0,0,1,7.757,6.225c-1.278,19.332-1.569,22.7-2.552,36.579Z"/><path class="b" d="M270.633,260.37c.869-12.5,1.739-24.993,2.681-37.484.188-2.5.483-4.728,1.894-6.864A10.225,10.225,0,0,1,280.2,212.1c2.236-.8,4.588-1.356,6.868-2.022q3.725-1.089,7.447-2.181,15.309-4.491,30.609-9.015l6.524-1.924c1.9-.56,3.653-.871,5.218.638,1.8,1.734,1.131,4.391.984,6.61q-.262,3.927-.529,7.854c-.578,8.475-1.2,16.947-1.8,25.421-.181,2.568,3.819,2.557,4,0,.561-7.92,1.147-15.838,1.69-23.758q.267-3.885.526-7.77c.191-2.849.841-5.974-.338-8.681a8.117,8.117,0,0,0-5.284-4.571c-2.512-.674-4.843.2-7.234.9q-15.777,4.651-31.554,9.3-7.836,2.3-15.678,4.589a18.766,18.766,0,0,0-7.04,3.31,14.436,14.436,0,0,0-4.308,6.138c-1.175,3.149-1.046,6.776-1.292,10.086q-.414,5.568-.812,11.138-.8,11.1-1.559,22.206c-.178,2.569,3.822,2.558,4,0Z"/><path class="b" d="M209.023,204.423c-7.932-1.9-15.791-4.307-23.6-6.646-1.6-.48-3.211-.956-4.794-1.5a4.307,4.307,0,0,0-3.517.216,24.33,24.33,0,0,0-4.021,2.33c-5.307,3.732-10.275,9.022-12.89,15.024a4.788,4.788,0,0,0-.68,2.4,3.534,3.534,0,0,0,1.158,1.834,27.96,27.96,0,0,0,2.5,2.306,90.265,90.265,0,0,0,7.541,5.546c6.305,4.231,12.877,8.071,19.516,11.75a80.987,80.987,0,0,0,11.491,5.407,41.483,41.483,0,0,0,11.328,2.3,26.168,26.168,0,0,0,15.4-3.538,22.249,22.249,0,0,0,7.339-6.977,56.341,56.341,0,0,0,4.39-9.267,170.391,170.391,0,0,0,6.861-22.555c.5-1.982.984-3.966,1.475-5.949.618-2.5-3.239-3.565-3.857-1.063-2.171,8.777-4.223,17.671-7.416,26.147a62.021,62.021,0,0,1-4.7,10.336,18.79,18.79,0,0,1-8,6.9c-5.778,2.816-12.357,2.314-18.436.825a54.24,54.24,0,0,1-12.86-5.473q-5.856-3.2-11.576-6.651c-3.924-2.361-7.809-4.8-11.548-7.447a37.212,37.212,0,0,1-7.225-6.113l.514,1.945a28.8,28.8,0,0,1,6.508-9.686,36.213,36.213,0,0,1,4.592-4.124c1.433-1.062,3.3-2.529,5.085-2.875h-1.063a40.961,40.961,0,0,1,4.318,1.347c2.242.683,4.492,1.341,6.743,1.991q7.025,2.031,14.077,3.966c1.427.391,2.852.8,4.29,1.143,2.5.6,3.569-3.256,1.063-3.857Z"/><path class="f" d="M6.859,155.935c46.621-10.769,129.764-29.7,166.014-37.952a3.879,3.879,0,0,0,3.019-3.786q-.012-54.187-.009-108.376a3.878,3.878,0,0,0-4.5-3.834C132.4,8.32,46.568,22.632,5.33,29.522A3.869,3.869,0,0,0,2.1,33.347c0,15.395.009,81.066.01,118.811A3.876,3.876,0,0,0,6.859,155.935Z"/><path class="b" d="M7.391,157.864q27.9-6.446,55.825-12.821,30.639-7.011,61.283-13.994c16.224-3.7,32.52-7.168,48.692-11.089a6.034,6.034,0,0,0,4.7-5.763c.17-3.476,0-7.006,0-10.488q0-10.613,0-21.226,0-21.35,0-42.7,0-10.488,0-20.976V8.068a11.783,11.783,0,0,0-.409-4.369A5.884,5.884,0,0,0,174.89.693c-2.04-1.135-4.162-.614-6.324-.262l-5.12.835q-5.849.955-11.7,1.917-28.388,4.664-56.766,9.386-29.871,4.959-59.739,9.942Q22.867,24.575,10.49,26.642c-1.739.291-3.48.569-5.216.872A5.955,5.955,0,0,0,.183,32.463,49.21,49.21,0,0,0,.1,39.679q0,24.727,0,49.457,0,29.6,0,59.208c0,2.121-.318,4.513.638,6.472a5.986,5.986,0,0,0,6.648,3.048c2.527-.468,1.457-4.324-1.064-3.857-2.41.446-2.221-2.359-2.222-3.881V130.238q0-14.8,0-29.6,0-26.567,0-53.133,0-4.376,0-8.752V35.314c0-1-.239-2.381.443-3.182a3.436,3.436,0,0,1,2.277-.841l2.7-.452,5.464-.912,11.7-1.953q28.182-4.7,56.367-9.389,28.74-4.777,57.484-9.524,11.859-1.956,23.72-3.9l5.14-.838c1.4-.228,3.434-.974,4.283.631.537,1.017.205,2.756.205,3.86V24.3q0,41.453.008,82.905,0,2.5,0,5c0,1.112.305,2.507-.586,3.36a4.378,4.378,0,0,1-2.15.764l-2.348.535-10.47,2.383q-12.355,2.811-24.71,5.627-29.364,6.692-58.724,13.4-28.515,6.518-57.021,13.072-5.778,1.331-11.556,2.665C3.82,154.586,4.881,158.443,7.391,157.864Z"/><path class="g" d="M28.529,62.393l5.336-.817a2.871,2.871,0,0,0,1.775-.969,3.053,3.053,0,0,0,.727-1.952,2.381,2.381,0,0,0-.759-1.752,2.315,2.315,0,0,0-1.789-.56l-5.336.812a2.752,2.752,0,0,0-1.711.913,2.934,2.934,0,0,0-.691,1.9,2.612,2.612,0,0,0,.723,1.806,2.126,2.126,0,0,0,1.725.624Z"/><path class="g" d="M43.81,60.37a3.4,3.4,0,0,0,2.918-3.291,2.622,2.622,0,0,0-2.967-2.561,3.266,3.266,0,0,0-2.888,3.173A2.69,2.69,0,0,0,43.81,60.37Z"/><path class="g" d="M55.076,58.3l6.838-1.062a3.268,3.268,0,0,0,1.935-.993,2.948,2.948,0,0,0,.8-1.956,2.257,2.257,0,0,0-.817-1.743,2.617,2.617,0,0,0-1.946-.533q-3.444.537-6.843,1.064a3.247,3.247,0,0,0-1.9.95,2.815,2.815,0,0,0-.773,1.908,2.4,2.4,0,0,0,.8,1.782,2.48,2.48,0,0,0,1.91.583Z"/><path class="g" d="M72.021,55.666l3.4-.529a2.333,2.333,0,0,0,1.072-.347,2.44,2.44,0,0,0,.895-.651,2.309,2.309,0,0,0,.573-.918,2.024,2.024,0,0,0,.236-1.042,2.236,2.236,0,0,0-.824-1.745A2.666,2.666,0,0,0,75.4,49.9l-3.4.532a3.615,3.615,0,0,0-1.959.964,2.195,2.195,0,0,0-.569.891,1.961,1.961,0,0,0-.233,1.026,2.35,2.35,0,0,0,.82,1.778,2.6,2.6,0,0,0,1.965.571Z"/><path class="a" d="M88.01,44.83a9.563,9.563,0,0,0-1.619,6.191,9.679,9.679,0,0,0,.894,3.419,10.166,10.166,0,0,0,1.648,2.285,2.547,2.547,0,0,0,1.974.6,3.2,3.2,0,0,0,1.97-1.024,3.077,3.077,0,0,0,.813-2.032,2.756,2.756,0,0,0-.818-1.827c-.231-.258.179.2.2.227a2.547,2.547,0,0,0-.184-.222c-.1-.131-.206-.264-.3-.4a5.715,5.715,0,0,1-.485-.841l.282.606a6.307,6.307,0,0,1-.451-1.6c.034.229.067.46.1.691a8.955,8.955,0,0,1-.018-2.453l-.1.7a7.039,7.039,0,0,1,.476-1.645c-.094.215-.187.431-.281.647a10.037,10.037,0,0,1,.729-1.333A2.221,2.221,0,0,0,91.834,43.5,3.332,3.332,0,0,0,88.01,44.83Z"/><path class="a" d="M16.131,55.993a10.629,10.629,0,0,0-1.258,6.036,12.465,12.465,0,0,0,.732,3.5,11.527,11.527,0,0,0,1.341,2.411,1.889,1.889,0,0,0,1.615.694,2.385,2.385,0,0,0,1.623-.992,3.462,3.462,0,0,0,.665-2.061,3.253,3.253,0,0,0-.7-1.888c-.194-.269.15.2.167.237a2.377,2.377,0,0,0-.154-.231c-.088-.136-.173-.274-.253-.416a6.708,6.708,0,0,1-.408-.865c.079.206.159.413.238.621a7.711,7.711,0,0,1-.384-1.629q.044.347.088.7a10.854,10.854,0,0,1-.032-2.449q-.038.345-.077.694a7.675,7.675,0,0,1,.382-1.613c-.076.209-.152.418-.227.629a9.485,9.485,0,0,1,.594-1.289,2.377,2.377,0,0,0-.857-3.24,2.411,2.411,0,0,0-3.1,1.153Z"/><path class="a" d="M101.857,45.716c-.564-.608-.135-.145-.02,0q.151.189.29.388a5.82,5.82,0,0,1,.47.825q-.138-.3-.278-.591a6.392,6.392,0,0,1,.481,1.706l-.1-.688a9.192,9.192,0,0,1,0,2.43l.1-.719a6.726,6.726,0,0,1-.425,1.519l.279-.67a11.576,11.576,0,0,1-.776,1.461,2.574,2.574,0,0,0,.99,3.634,3.03,3.03,0,0,0,3.768-1.391,10.8,10.8,0,0,0,1.638-6.062,8.93,8.93,0,0,0-.594-3.08,9.038,9.038,0,0,0-1.918-2.8,2.621,2.621,0,0,0-1.95-.5,3.37,3.37,0,0,0-1.957.956A2.711,2.711,0,0,0,101.046,44a2.566,2.566,0,0,0,.811,1.715Z"/><path class="a" d="M132.828,54.243a12.39,12.39,0,0,0-1.516,6.837,12.022,12.022,0,0,0,.8,3.718,10.963,10.963,0,0,0,1.492,2.459,2.131,2.131,0,0,0,1.787.668,2.706,2.706,0,0,0,1.778-1.037,3.5,3.5,0,0,0,.737-2.127,3.309,3.309,0,0,0-.724-1.97c-.206-.282.159.214.177.249a2.8,2.8,0,0,0-.164-.243c-.093-.143-.183-.288-.268-.438a6.844,6.844,0,0,1-.431-.92c.083.221.167.441.25.662a8,8,0,0,1-.4-1.749q.043.377.088.753a11.853,11.853,0,0,1-.005-2.676c-.031.256-.061.511-.092.767a9,9,0,0,1,.435-1.793l-.255.7a11.749,11.749,0,0,1,.66-1.447,2.869,2.869,0,0,0-.886-3.766,2.633,2.633,0,0,0-3.466,1.348Z"/><path class="a" d="M142.817,56.151c-.493-.69-.118-.165-.018,0q.133.213.253.436a7.456,7.456,0,0,1,.409.919c-.08-.218-.161-.437-.242-.655a8.526,8.526,0,0,1,.416,1.873l-.084-.749a12.227,12.227,0,0,1,0,2.622l.089-.768a8.414,8.414,0,0,1-.376,1.615l.246-.708a12.733,12.733,0,0,1-.685,1.536c-.689,1.336-.263,3.262.857,3.861,1.2.638,2.561.069,3.278-1.359a13.075,13.075,0,0,0,1.419-6.375,12.33,12.33,0,0,0-.5-3.364,11.43,11.43,0,0,0-1.644-3.184,2.009,2.009,0,0,0-1.688-.661,2.586,2.586,0,0,0-1.711.981,3.347,3.347,0,0,0-.718,2.054,3.3,3.3,0,0,0,.706,1.929Z"/><path class="a" d="M118.474,38.376c-2.164.112-3.738,2.087-4.3,3.95-.187.617-.306,1.252-.47,1.88-.126.487.313-.541.049-.1a1.571,1.571,0,0,1-.228.386l.248-.346q-.228.229.074-.042c.21-.167.229-.19.059-.071.46-.212.552-.268.286-.185a3.008,3.008,0,0,0-1.95,3.095,2.407,2.407,0,0,0,2.659,2.035,1.239,1.239,0,0,1-.673-.077c-.23-.094-.272-.094-.092-.016-.343-.248-.437-.308-.283-.183a1.251,1.251,0,0,1,.147.134c.006-.009-.407-.58-.083-.06.059.1.192.479.065.081-.141-.444.04.127.072.216.046.131.088.262.132.394.1.314.21.628.338.934a5.288,5.288,0,0,0,1.5,2.216,3.943,3.943,0,0,0,1.671.812,3.885,3.885,0,0,0,1.945-.181,3.124,3.124,0,0,0,1.595-1.437,3,3,0,0,0,.273-2.143,2.452,2.452,0,0,0-3.278-1.549,1.794,1.794,0,0,1,1.291.007c-.381-.158.325.318.141.1-.3-.361.068.013.079.118a2.385,2.385,0,0,0-.227-.4c.145.345.181.427.109.242-.03-.076-.058-.154-.085-.231-.045-.13-.088-.261-.13-.392-.094-.288-.188-.575-.3-.853a5.3,5.3,0,0,0-1.378-2.139,3.918,3.918,0,0,0-2.815-.894q.354,2.517.707,5.13c1.839-.546,2.972-2.5,3.393-4.189.153-.611.27-1.216.456-1.816.1-.331-.3.568-.051.168.277-.446-.448.453-.08.093s-.547.367-.124.111l-.408.222c-.51.093-.621.126-.343.11a3.087,3.087,0,0,0,2.678-2.894,2.309,2.309,0,0,0-2.665-2.239Z"/><path class="a" d="M46.059,77.846l5.328-.893a3,3,0,0,0,1.887-1.113,3.7,3.7,0,0,0,.773-2.249,2.947,2.947,0,0,0-.8-2.052,2.313,2.313,0,0,0-1.9-.676l-5.331.863A2.887,2.887,0,0,0,44.168,72.8a3.669,3.669,0,0,0-.749,2.233,3.134,3.134,0,0,0,.78,2.1,2.2,2.2,0,0,0,1.86.71Z"/><path class="a" d="M63.046,75.006l2.561-.427a2.072,2.072,0,0,0,1.058-.381,2.394,2.394,0,0,0,.883-.728,2.637,2.637,0,0,0,.565-1.038,2.607,2.607,0,0,0,.233-1.187q-.052-.395-.1-.786a2.655,2.655,0,0,0-.715-1.238l-.56-.4a2.357,2.357,0,0,0-1.391-.253c-.836.111-1.71.276-2.563.413a2.1,2.1,0,0,0-1.053.37,2.329,2.329,0,0,0-.875.71,2.564,2.564,0,0,0-.559,1.023,2.6,2.6,0,0,0-.228,1.185l.1.793a2.762,2.762,0,0,0,.709,1.266l.555.416a2.323,2.323,0,0,0,1.381.265Z"/><path class="h" d="M81.127,72.005q5.538-.915,11.081-1.825a3.358,3.358,0,0,0,2.776-3.27A2.54,2.54,0,0,0,92.2,64.289q-5.54.885-11.091,1.776a3.315,3.315,0,0,0-2.776,3.254,2.586,2.586,0,0,0,2.793,2.686Z"/><path class="h" d="M104.658,68.145l1.869-.3a2.12,2.12,0,0,0,1.055-.369,2.387,2.387,0,0,0,.881-.7,2.564,2.564,0,0,0,.566-1,2.483,2.483,0,0,0,.236-1.15q-.048-.382-.1-.763a2.543,2.543,0,0,0-.7-1.2q-.276-.2-.553-.392a2.373,2.373,0,0,0-1.382-.246c-.608.079-1.246.2-1.871.3a2.181,2.181,0,0,0-1.06.362,2.391,2.391,0,0,0-.888.694,2.5,2.5,0,0,0-.57.995,2.447,2.447,0,0,0-.238,1.15c.033.255.065.511.1.767a2.624,2.624,0,0,0,.709,1.221q.279.2.557.4a2.421,2.421,0,0,0,1.389.251Z"/><path class="h" d="M119.467,65.75l5.7-.913a2.959,2.959,0,0,0,1.851-1.043,3.439,3.439,0,0,0,.768-2.121,2.753,2.753,0,0,0-.756-1.951,2.262,2.262,0,0,0-1.847-.648q-2.828.441-5.706.893A3.071,3.071,0,0,0,117.587,61a3.369,3.369,0,0,0-.791,2.122,2.771,2.771,0,0,0,.782,1.971,2.32,2.32,0,0,0,1.889.653Z"/><path class="a" d="M33.936,110.829c1.468-.2,2.881-2.161,2.8-4.209s-1.276-3.638-2.85-3.433c-1.467.191-2.843,2.129-2.762,4.191s1.241,3.671,2.814,3.451Z"/><path class="a" d="M44.33,108.281l2.126-.435a1.841,1.841,0,0,0,1.011-.432,2.437,2.437,0,0,0,.844-.814,3.115,3.115,0,0,0,.54-1.155,3.32,3.32,0,0,0,.22-1.323l-.1-.877a3.15,3.15,0,0,0-.689-1.384l-.538-.451a1.963,1.963,0,0,0-1.331-.28c-.692.112-1.42.278-2.127.417a1.8,1.8,0,0,0-1,.422,2.355,2.355,0,0,0-.831.807,3.1,3.1,0,0,0-.528,1.157,3.379,3.379,0,0,0-.214,1.331l.1.885a3.188,3.188,0,0,0,.675,1.4l.529.455a1.947,1.947,0,0,0,1.316.277Z"/><path class="a" d="M56.774,105.748l6.1-1.233a3.134,3.134,0,0,0,1.925-1.237,4.177,4.177,0,0,0,.791-2.434,3.259,3.259,0,0,0-.813-2.209,2.229,2.229,0,0,0-1.936-.7q-3.069.594-6.106,1.183a3.02,3.02,0,0,0-1.9,1.224,4.267,4.267,0,0,0-.773,2.456,3.385,3.385,0,0,0,.8,2.244,2.144,2.144,0,0,0,1.907.706Z"/><path class="i" d="M75.827,101.919q6.267-1.249,12.564-2.493a3.622,3.622,0,0,0,2.768-3.572c-.066-1.643-1.225-3.1-2.779-2.8q-6.291,1.191-12.575,2.393a3.617,3.617,0,0,0-2.753,3.614c.07,1.68,1.227,3.171,2.775,2.862Z"/><path class="a" d="M111.865,95.207a3.913,3.913,0,0,0,3.027-3.873c-.07-1.861-1.317-3.278-3.018-3.059a3.894,3.894,0,0,0-3.045,3.867c.072,1.875,1.336,3.3,3.036,3.065Z"/><path class="a" d="M132.127,91.312a3.735,3.735,0,0,0,2.853-3.739c-.063-1.813-1.23-3.206-2.834-3.009A3.737,3.737,0,0,0,129.26,88.3c.065,1.826,1.263,3.222,2.867,3.01Z"/><path class="a" d="M141.734,89.5a3.625,3.625,0,0,0,2.728-3.666c-.061-1.788-1.173-3.174-2.708-2.992a3.636,3.636,0,0,0-2.767,3.667c.062,1.8,1.212,3.188,2.747,2.991Z"/><path class="a" d="M120.736,93.124l2.808-.538a1.974,1.974,0,0,0,1.013-.4,2.372,2.372,0,0,0,.844-.742,2.769,2.769,0,0,0,.543-1.051,2.808,2.808,0,0,0,.228-1.2l-.091-.8a2.62,2.62,0,0,0-.669-1.254,2.14,2.14,0,0,0-1.853-.655l-2.809.516a1.993,1.993,0,0,0-1.024.394,2.387,2.387,0,0,0-.859.742,4.17,4.17,0,0,0-.786,2.269l.094.8a2.647,2.647,0,0,0,.683,1.264,2.161,2.161,0,0,0,1.878.645Z"/><path class="a" d="M98.86,86.758a15.134,15.134,0,0,0-1.721,8.131,13.74,13.74,0,0,0,.922,4.256,11.87,11.87,0,0,0,1.729,2.786,2.244,2.244,0,0,0,1.945.64,3.125,3.125,0,0,0,1.94-1.2,3.882,3.882,0,0,0,.8-2.333,3.459,3.459,0,0,0-.8-2.105c-.23-.3.13.194.175.235a1.615,1.615,0,0,1-.2-.28q-.15-.219-.288-.45c-.125-.208-.516-.721-.5-1,0,.085.26.766.113.26-.027-.09-.057-.179-.083-.271-.054-.189-.1-.382-.141-.578a2.3,2.3,0,0,1-.121-.717c-.02.043.07.772.039.294-.009-.158-.025-.314-.035-.472a13.9,13.9,0,0,1-.008-1.646c.008-.121.019-.242.028-.363.036-.494-.048.306-.037.315a2.94,2.94,0,0,1,.138-.764q.073-.332.169-.658a2.358,2.358,0,0,1,.127-.4c-.037.072-.27.708-.1.3.2-.491.42-.968.665-1.437.772-1.477.3-3.523-.985-4.125a2.9,2.9,0,0,0-3.77,1.59Z"/><path class="a" d="M148.948,81.442c-.045-.068-.308-.494-.131-.194.059.1.121.2.18.3.091.159.179.322.261.49q.136.278.254.571a2.6,2.6,0,0,0,.1.263c-.033.006-.2-.667-.1-.267a12.768,12.768,0,0,1,.278,1.255,3.865,3.865,0,0,1,.054.405c0-.106-.056-.674-.034-.261.015.275.032.549.038.826.01.488-.01.972-.04,1.462-.027.433,0-.291.036-.331a1.277,1.277,0,0,0-.043.294c-.035.212-.077.424-.126.633-.043.182-.1.358-.145.539-.089.34.256-.713.085-.271-.033.087-.064.176-.1.263-.159.412-.342.812-.532,1.207-.664,1.383-.252,3.342.829,3.924,1.153.62,2.468.008,3.158-1.461a15.1,15.1,0,0,0,1.453-6.986,14.387,14.387,0,0,0-.522-3.693,12.938,12.938,0,0,0-1.672-3.467,1.854,1.854,0,0,0-1.625-.68,2.467,2.467,0,0,0-1.649,1.034,3.7,3.7,0,0,0-.692,2.147,3.543,3.543,0,0,0,.682,2Z"/><path class="a" d="M160.831,74.684h0a1.387,1.387,0,0,0-.822.329,1.911,1.911,0,0,0-.693.665,2.628,2.628,0,0,0-.448.974,2.93,2.93,0,0,0-.188,1.132l.077.761a2.88,2.88,0,0,0,.556,1.217l.436.405a1.6,1.6,0,0,0,1.081.279h0a1.387,1.387,0,0,0,.817-.335,1.878,1.878,0,0,0,.677-.666,2.632,2.632,0,0,0,.433-.97,2.988,2.988,0,0,0,.179-1.126l-.074-.756a2.912,2.912,0,0,0-.538-1.214l-.425-.407a1.564,1.564,0,0,0-1.068-.288Z"/><path class="a" d="M158.952,85.258l.1,2.822a2.646,2.646,0,0,0,.186,1.095,2.038,2.038,0,0,0,.447.879,1.4,1.4,0,0,0,.692.514,1.183,1.183,0,0,0,.823.147l.564-.172a2.469,2.469,0,0,0,.93-.855l.327-.622a3.832,3.832,0,0,0,.284-1.488c-.016-.917-.068-1.869-.1-2.8a2.709,2.709,0,0,0-.18-1.089,2.074,2.074,0,0,0-.432-.879,1.38,1.38,0,0,0-.677-.523,1.163,1.163,0,0,0-.815-.159l-.567.165a2.477,2.477,0,0,0-.947.848c-.113.208-.226.415-.339.624a3.891,3.891,0,0,0-.3,1.5Z"/></svg>